<svg width="127" height="127" viewBox="0 0 127 127" fill="none" xmlns="http://www.w3.org/2000/svg">
<rect x="1" y="1" width="125" height="125" rx="29" stroke="#2E2BD0" stroke-width="2"/>
<path d="M67.4688 44.8469V56.3562H77.7875C78.5813 56.3562 78.9781 57.15 78.9781 57.9438L77.3906 65.4844C77.3906 65.8813 76.5969 66.2781 76.2 66.2781H67.4688V95.25H55.5625V66.675H48.8156C48.0219 66.675 47.625 66.2781 47.625 65.4844V57.9438C47.625 57.15 48.0219 56.7531 48.8156 56.7531H55.5625V43.6562C55.5625 36.9094 60.7219 31.75 67.4688 31.75H78.1844C78.9781 31.75 79.375 32.1469 79.375 32.9406V42.4656C79.375 43.2594 78.9781 43.6562 78.1844 43.6562H68.6594C67.8656 43.6562 67.4688 44.0531 67.4688 44.8469Z" stroke="#2E2BD0" stroke-width="2" stroke-miterlimit="10" stroke-linecap="round"/>
</svg>
