<svg width="127" height="127" viewBox="0 0 127 127" fill="none" xmlns="http://www.w3.org/2000/svg">
<rect x="1" y="1" width="125" height="125" rx="29" stroke="#2E2BD0" stroke-width="2"/>
<path d="M43.2594 97.6312C49.2125 101.203 56.3562 103.187 63.5 103.187C85.3281 103.187 103.187 85.3281 103.187 63.5C103.187 41.6719 85.3281 23.8125 63.5 23.8125C41.6719 23.8125 23.8125 41.6719 23.8125 63.5C23.8125 70.6437 25.7969 77.3906 28.9719 83.3437L24.1428 101.917C23.9968 102.479 24.5167 102.986 25.0747 102.827L43.2594 97.6312Z" stroke="#2E2BD0" stroke-width="2" stroke-miterlimit="10" stroke-linecap="round" stroke-linejoin="round"/>
<path d="M81.3594 74.805C81.3594 75.4479 81.2163 76.1087 80.9122 76.7517C80.6082 77.3946 80.2147 78.0018 79.696 78.5733C78.8195 79.5377 77.8537 80.2342 76.7626 80.6807C75.6894 81.1272 74.5268 81.3594 73.2748 81.3594C71.4504 81.3594 69.5008 80.9308 67.4439 80.0556C65.387 79.1805 63.3301 78.0018 61.2911 76.5195C59.2341 75.0193 57.2845 73.3584 55.4244 71.5189C53.5821 69.6615 51.9187 67.7148 50.4341 65.6788C48.9675 63.6429 47.787 61.6069 46.9284 59.5888C46.0699 57.5528 45.6406 55.6062 45.6406 53.7488C45.6406 52.5343 45.8553 51.3735 46.2845 50.3019C46.7138 49.2125 47.3935 48.2124 48.3414 47.3194C49.4862 46.1943 50.7382 45.6406 52.0618 45.6406C52.5626 45.6406 53.0634 45.7478 53.5106 45.9621C53.9756 46.1764 54.387 46.4979 54.7089 46.9622L58.8585 52.8022C59.1805 53.2487 59.413 53.6595 59.574 54.0524C59.735 54.4274 59.8244 54.8025 59.8244 55.1418C59.8244 55.5704 59.6992 55.9991 59.4488 56.4098C59.2163 56.8206 58.8764 57.2492 58.4471 57.6778L57.0878 59.0887C56.891 59.2852 56.8016 59.5174 56.8016 59.8031C56.8016 59.946 56.8195 60.071 56.8553 60.2139C56.9089 60.3568 56.9626 60.4639 56.9984 60.5711C57.3203 61.1604 57.8748 61.9284 58.6618 62.8571C59.4667 63.7858 60.3252 64.7323 61.2553 65.6788C62.2211 66.6254 63.1512 67.5005 64.0992 68.3042C65.0293 69.09 65.7984 69.6258 66.4065 69.9472C66.4959 69.983 66.6033 70.0365 66.7285 70.0901C66.8715 70.1437 67.0146 70.1615 67.1756 70.1615C67.4797 70.1615 67.7122 70.0544 67.9089 69.8579L69.2683 68.5185C69.7155 68.072 70.1447 67.7327 70.5561 67.5184C70.9675 67.2683 71.3789 67.1433 71.826 67.1433C72.1659 67.1433 72.5236 67.2148 72.9171 67.3755C73.3106 67.5362 73.722 67.7684 74.1691 68.072L80.0895 72.269C80.5545 72.5904 80.8764 72.9655 81.0732 73.412C81.2521 73.8584 81.3594 74.3049 81.3594 74.805Z" stroke="#2E2BD0" stroke-width="2" stroke-miterlimit="10"/>
</svg>
